<svg width="17" height="23" viewBox="0 0 17 23" fill="none" xmlns="http://www.w3.org/2000/svg">
<path d="M15.4207 2.75531C14.8451 2.19637 14.1465 1.91682 13.3245 1.91682C12.5029 1.91682 11.8042 2.19621 11.2288 2.75531C10.6536 3.31425 10.366 3.99298 10.366 4.79176C10.366 5.31084 10.4992 5.79252 10.7663 6.23671C11.0334 6.68094 11.3927 7.02794 11.8451 7.27738C11.8451 7.79646 11.8016 8.25333 11.7145 8.64759C11.6269 9.04184 11.4832 9.38857 11.283 9.68826C11.0822 9.98779 10.8746 10.2422 10.6586 10.4519C10.4427 10.6616 10.1396 10.8586 9.74923 11.0434C9.35891 11.2281 8.9965 11.3826 8.6627 11.5076C8.3289 11.6322 7.87927 11.7794 7.31422 11.9492C6.2867 12.2588 5.49576 12.5431 4.94092 12.8028V5.36051C5.39298 5.11112 5.75259 4.76417 6.01967 4.31994C6.2867 3.8757 6.42024 3.39397 6.42024 2.87489C6.42024 2.07637 6.1327 1.39748 5.55729 0.83854C4.9821 0.279653 4.28357 0 3.46154 0C2.63946 0 1.94093 0.279443 1.36552 0.83854C0.790332 1.39748 0.502575 2.07637 0.502575 2.87489C0.502575 3.39397 0.636116 3.8757 0.903146 4.31994C1.17023 4.76417 1.52978 5.11112 1.9819 5.36051V17.6395C1.52978 17.8888 1.17023 18.2361 0.903146 18.6802C0.636116 19.1246 0.502575 19.6063 0.502575 20.1252C0.502575 20.9237 0.790116 21.6026 1.36552 22.1615C1.94093 22.7203 2.63962 23 3.46154 23C4.28341 23 4.9821 22.7203 5.55729 22.1615C6.13254 21.6026 6.42024 20.9237 6.42024 20.1252C6.42024 19.6063 6.2867 19.1246 6.01967 18.6802C5.75253 18.2361 5.39298 17.8888 4.94092 17.6395V17.2502C4.94092 16.5615 5.15408 16.0625 5.5804 15.7531C6.00671 15.4433 6.87743 15.089 8.19266 14.6898C9.57984 14.2605 10.6228 13.8559 11.3214 13.4765C13.6226 12.209 14.7837 10.1425 14.8041 7.27733C15.2565 7.02794 15.6158 6.68089 15.8829 6.23665C16.1498 5.79242 16.2835 5.31079 16.2835 4.79171C16.2837 3.99313 15.9959 3.3144 15.4207 2.75531ZM4.50969 21.1438C4.22188 21.4234 3.87259 21.5631 3.46176 21.5631C3.05066 21.5631 2.70137 21.4234 2.41367 21.1438C2.12613 20.8645 1.98217 20.5249 1.98217 20.1257C1.98217 19.7262 2.12596 19.387 2.41367 19.1074C2.70137 18.8279 3.05066 18.6881 3.46176 18.6881C3.87259 18.6881 4.22193 18.8281 4.50969 19.1074C4.79739 19.387 4.94113 19.7262 4.94113 20.1257C4.94108 20.5249 4.79739 20.8645 4.50969 21.1438ZM4.50969 3.89333C4.22188 4.17287 3.87259 4.31259 3.46176 4.31259C3.05066 4.31259 2.70137 4.17287 2.41367 3.89333C2.12613 3.61378 1.98217 3.27454 1.98217 2.8751C1.98217 2.47576 2.12596 2.13626 2.41367 1.85698C2.70137 1.57748 3.05066 1.43771 3.46176 1.43771C3.87259 1.43771 4.22193 1.57753 4.50969 1.85698C4.79739 2.13626 4.94113 2.47576 4.94113 2.8751C4.94108 3.27454 4.79739 3.61393 4.50969 3.89333ZM14.3726 5.81014C14.085 6.08954 13.7359 6.22936 13.3249 6.22936C12.9137 6.22936 12.5643 6.08954 12.277 5.81014C11.9894 5.53075 11.8455 5.19131 11.8455 4.79192C11.8455 4.39258 11.9894 4.05329 12.277 3.77369C12.5646 3.49409 12.9137 3.35447 13.3249 3.35447C13.7359 3.35447 14.085 3.49414 14.3726 3.77369C14.6602 4.05303 14.8041 4.39253 14.8041 4.79192C14.8041 5.19126 14.6604 5.53075 14.3726 5.81014Z" fill="black"/>
</svg>
