<svg viewBox="0 0 1224 178" fill="none" xmlns="http://www.w3.org/2000/svg">
<path fill-rule="evenodd" clip-rule="evenodd" d="M0 34.2173L40.8 22.2354C81.6 10.2536 163.2 -13.7102 244.8 10.2536C326.4 34.2173 408 106.109 489.6 118.091C571.2 130.072 652.8 82.1449 734.4 58.1811C816 34.2173 897.6 34.2173 979.2 34.2173C1060.8 34.2173 1142.4 34.2173 1183.2 34.2173H1224V178H1183.2C1142.4 178 1060.8 178 979.2 178C897.6 178 816 178 734.4 178C652.8 178 571.2 178 489.6 178C408 178 326.4 178 244.8 178C163.2 178 81.6 178 40.8 178H0V34.2173Z" fill="white"/>
</svg>
